<?xml version="1.0"?>
<svg version="1.1" xmlns="http://www.w3.org/2000/svg" xmlns:xlink="http://www.w3.org/1999/xlink" width="150" height="150">
    <desc iVinci="yes" version="4.6" gridStep="20" showGrid="no" snapToGrid="no" codePlatform="0"/>
    <g id="Layer1" name="Layer 2" opacity="1">
        <g id="Shape1">
            <desc shapeID="1" type="0" basicInfo-basicType="2" basicInfo-roundedRectRadius="23" basicInfo-polygonSides="6" basicInfo-starPoints="5" bounding="rect(-64.5,-64.5,129,129)" text="" font-familyName="Helvetica" font-pixelSize="20" font-bold="0" font-underline="0" font-alignment="1" strokeStyle="0" markerStart="0" markerEnd="0" shadowEnabled="0" shadowOffsetX="0" shadowOffsetY="2" shadowBlur="4" shadowOpacity="160" blurEnabled="0" blurRadius="4" transform="matrix(1,0,0,1,802,168)" pers-center="0,0" pers-size="0,0" pers-start="0,0" pers-end="0,0" locked="0" mesh="" flag=""/>
            <path id="shapePath1" d="M737.5,126.5 C737.5,113.798 747.797,103.5 760.5,103.5 L843.5,103.5 C856.203,103.5 866.5,113.798 866.5,126.5 L866.5,209.5 C866.5,222.203 856.203,232.5 843.5,232.5 L760.5,232.5 C747.797,232.5 737.5,222.203 737.5,209.5 L737.5,126.5 Z" style="stroke:#323232;stroke-opacity:1;stroke-width:0;stroke-linejoin:miter;stroke-miterlimit:2;stroke-linecap:round;fill-rule:evenodd;fill:url(#linearGradientFill1);fill-opacity:1;"/><defs><linearGradient id="linearGradientFill1" gradientUnits="userSpaceOnUse" x1="802" y1="119" x2="802" y2="223"><stop offset="0" stop-color="#b0ebdf" stop-opacity="1"/><stop offset="1" stop-color="#9ee1ff" stop-opacity="1"/></linearGradient></defs>
        </g>
        <g id="Shape2">
            <desc shapeID="2" type="0" basicInfo-basicType="2" basicInfo-roundedRectRadius="23" basicInfo-polygonSides="6" basicInfo-starPoints="5" bounding="rect(-64.5,-64.5,129,129)" text="" font-familyName="Helvetica" font-pixelSize="20" font-bold="0" font-underline="0" font-alignment="1" strokeStyle="0" markerStart="0" markerEnd="0" shadowEnabled="0" shadowOffsetX="0" shadowOffsetY="2" shadowBlur="4" shadowOpacity="160" blurEnabled="0" blurRadius="4" transform="matrix(1,0,0,1,75,75)" pers-center="0,0" pers-size="0,0" pers-start="0,0" pers-end="0,0" locked="0" mesh="" flag=""/>
            <path id="shapePath2" d="M10.5,33.5 C10.5,20.7975 20.7975,10.5 33.5,10.5 L116.5,10.5 C129.203,10.5 139.5,20.7975 139.5,33.5 L139.5,116.5 C139.5,129.203 129.203,139.5 116.5,139.5 L33.5,139.5 C20.7975,139.5 10.5,129.203 10.5,116.5 L10.5,33.5 Z" style="stroke:#323232;stroke-opacity:1;stroke-width:0;stroke-linejoin:miter;stroke-miterlimit:2;stroke-linecap:round;fill-rule:evenodd;fill:url(#linearGradientFill2);fill-opacity:1;"/><defs><linearGradient id="linearGradientFill2" gradientUnits="userSpaceOnUse" x1="75" y1="26" x2="75" y2="130"><stop offset="0" stop-color="#b0ebdf" stop-opacity="1"/><stop offset="1" stop-color="#9ee1ff" stop-opacity="1"/></linearGradient></defs>
        </g>
    </g>
    <g id="Layer2" name="Layer 3" opacity="1">
        <g id="Shape3">
            <desc shapeID="3" type="2" basicInfo-basicType="0" basicInfo-roundedRectRadius="12" basicInfo-polygonSides="6" basicInfo-starPoints="5" bounding="rect(-58.125,-11.9148,116.25,23.8295)" text="wfs" font-familyName="Apple SD 산돌고딕 Neo" font-pixelSize="17" font-bold="1" font-underline="0" font-alignment="1" strokeStyle="0" markerStart="0" markerEnd="0" shadowEnabled="0" shadowOffsetX="0" shadowOffsetY="2" shadowBlur="4" shadowOpacity="160" blurEnabled="0" blurRadius="4" transform="matrix(1,0,0,1,75.0013,123.75)" pers-center="0,0" pers-size="0,0" pers-start="0,0" pers-end="0,0" locked="0" mesh="" flag=""/>
            <path id="shapePath3" d="M66.2157,118.874 L68.6146,118.874 L69.9925,125.39 L71.4036,118.874 L73.869,118.874 L71.2459,127.922 L68.8138,127.922 L67.3944,121.331 L65.9583,127.922 L63.5013,127.922 L60.9613,118.874 L63.5013,118.874 L64.9124,125.365 L66.2157,118.874 M78.9115,115.574 C79.0332,115.583 79.1992,115.595 79.4095,115.612 L79.4095,117.538 C79.2767,117.521 79.0539,117.509 78.7413,117.5 C78.4286,117.492 78.2128,117.561 78.0938,117.708 C77.9748,117.854 77.9154,118.016 77.9154,118.193 C77.9154,118.37 77.9154,118.625 77.9154,118.957 L79.4676,118.957 L79.4676,120.625 L77.9154,120.625 L77.9154,127.922 L75.5579,127.922 L75.5579,120.625 L74.2381,120.625 L74.2381,118.957 L75.533,118.957 L75.533,118.376 C75.533,117.408 75.6963,116.741 76.0228,116.375 C76.3659,115.833 77.1932,115.562 78.5047,115.562 C78.6541,115.562 78.7897,115.566 78.9115,115.574 M82.6668,125.033 C82.7166,125.454 82.8245,125.753 82.9906,125.93 C83.2839,126.245 83.8262,126.403 84.6175,126.403 C85.0824,126.403 85.4517,126.334 85.7257,126.195 C85.9996,126.057 86.1366,125.849 86.1366,125.573 C86.1366,125.307 86.0259,125.105 85.8045,124.967 C85.5832,124.828 84.7614,124.59 83.3392,124.253 C82.3154,123.998 81.5933,123.68 81.1727,123.298 C80.7521,122.922 80.5418,122.38 80.5418,121.671 C80.5418,120.836 80.8697,120.118 81.5255,119.517 C82.1812,118.917 83.104,118.617 84.2938,118.617 C85.4227,118.617 86.3427,118.842 87.0538,119.293 C87.7649,119.744 88.173,120.523 88.2782,121.63 L85.9124,121.63 C85.8792,121.326 85.7934,121.085 85.6551,120.908 C85.395,120.587 84.9523,120.426 84.327,120.426 C83.8123,120.426 83.4457,120.507 83.2271,120.667 C83.0085,120.827 82.8992,121.016 82.8992,121.231 C82.8992,121.503 83.0155,121.699 83.2479,121.821 C83.4803,121.948 84.3021,122.167 85.7132,122.477 C86.654,122.698 87.3595,123.033 87.8299,123.481 C88.2948,123.935 88.5272,124.502 88.5272,125.183 C88.5272,126.079 88.1938,126.811 87.5269,127.378 C86.8601,127.945 85.8294,128.229 84.4349,128.229 C83.0127,128.229 81.9626,127.929 81.2847,127.328 C80.6068,126.728 80.2679,125.963 80.2679,125.033 L82.6668,125.033 Z" style="stroke:none;fill-rule:nonzero;fill:#34639e;fill-opacity:0.686275;"/>
        </g>
    </g>
    <g id="Layer3" name="Layer 1" opacity="1">
        <g id="Shape4">
            <desc shapeID="4" type="0" basicInfo-basicType="2" basicInfo-roundedRectRadius="9" basicInfo-polygonSides="6" basicInfo-starPoints="5" bounding="rect(-45.4631,-26.8937,90.9261,53.7873)" text="" font-familyName="Apple SD 산돌고딕 Neo" font-pixelSize="17" font-bold="1" font-underline="0" font-alignment="1" strokeStyle="0" markerStart="0" markerEnd="0" shadowEnabled="0" shadowOffsetX="0" shadowOffsetY="2" shadowBlur="4" shadowOpacity="160" blurEnabled="0" blurRadius="4" transform="matrix(1.11268,0,0,1.30159,75.0002,73.7956)" pers-center="0,0" pers-size="0,0" pers-start="0,0" pers-end="0,0" locked="0" mesh="" flag=""/>
            <path id="shapePath4" d="M24.4143,50.5053 C24.4143,44.0357 28.8978,38.791 34.4284,38.791 L115.572,38.791 C121.102,38.791 125.586,44.0357 125.586,50.5053 L125.586,97.0856 C125.586,103.555 121.102,108.8 115.572,108.8 L34.4284,108.8 C28.8978,108.8 24.4143,103.555 24.4143,97.0856 L24.4143,50.5053 Z" style="stroke:none;fill-rule:evenodd;fill:url(#linearGradientFill4);fill-opacity:1;"/><defs><linearGradient id="linearGradientFill4" gradientUnits="userSpaceOnUse" x1="49.9301" y1="28.2339" x2="52.1793" y2="110.99"><stop offset="0" stop-color="#55bcfe" stop-opacity="1"/><stop offset="1" stop-color="#16a5fe" stop-opacity="1"/></linearGradient></defs>
        </g>
        <g id="Shape5">
            <desc shapeID="5" type="0" basicInfo-basicType="2" basicInfo-roundedRectRadius="6" basicInfo-polygonSides="6" basicInfo-starPoints="5" bounding="rect(-21.4613,-8.635,42.9225,17.2699)" text="" font-familyName="Apple SD 산돌고딕 Neo" font-pixelSize="17" font-bold="1" font-underline="0" font-alignment="1" strokeStyle="0" markerStart="0" markerEnd="0" shadowEnabled="0" shadowOffsetX="0" shadowOffsetY="2" shadowBlur="4" shadowOpacity="160" blurEnabled="0" blurRadius="4" transform="matrix(1,0,0,1,59.1484,38.791)" pers-center="0,0" pers-size="0,0" pers-start="0,0" pers-end="0,0" locked="0" mesh="" flag=""/>
            <path id="shapePath5" d="M37.6871,36.156 C37.6871,32.8423 40.3734,30.156 43.6871,30.156 L74.6096,30.156 C77.9233,30.156 80.6096,32.8423 80.6096,36.156 L80.6096,41.4259 C80.6096,44.7397 77.9233,47.4259 74.6096,47.4259 L43.6871,47.4259 C40.3734,47.4259 37.6871,44.7397 37.6871,41.4259 L37.6871,36.156 Z" style="stroke:none;fill-rule:evenodd;fill:url(#linearGradientFill5);fill-opacity:1;"/><defs><linearGradient id="linearGradientFill5" gradientUnits="userSpaceOnUse" x1="49.9301" y1="28.2339" x2="52.1793" y2="110.99"><stop offset="0" stop-color="#55bcfe" stop-opacity="1"/><stop offset="1" stop-color="#16a5fe" stop-opacity="1"/></linearGradient></defs>
        </g>
        <g id="Shape6">
            <desc shapeID="6" type="0" basicInfo-basicType="2" basicInfo-roundedRectRadius="6" basicInfo-polygonSides="6" basicInfo-starPoints="5" bounding="rect(-15.2878,-8.635,30.5756,17.2699)" text="" font-familyName="Apple SD 산돌고딕 Neo" font-pixelSize="17" font-bold="1" font-underline="0" font-alignment="1" strokeStyle="0" markerStart="0" markerEnd="0" shadowEnabled="0" shadowOffsetX="0" shadowOffsetY="2" shadowBlur="4" shadowOpacity="160" blurEnabled="0" blurRadius="4" transform="matrix(1,0,0,1,75.0001,38.791)" pers-center="0,0" pers-size="0,0" pers-start="0,0" pers-end="0,0" locked="0" mesh="" flag=""/>
            <path id="shapePath6" d="M59.7123,36.156 C59.7123,32.8423 62.3986,30.156 65.7123,30.156 L84.2879,30.156 C87.6017,30.156 90.2879,32.8423 90.2879,36.156 L90.2879,41.4259 C90.2879,44.7397 87.6017,47.4259 84.2879,47.4259 L65.7123,47.4259 C62.3986,47.4259 59.7123,44.7397 59.7123,41.4259 L59.7123,36.156 Z" style="stroke:none;fill-rule:evenodd;fill:#55bcfe;fill-opacity:0.490196;"/>
        </g>
    </g>
    <g id="Layer4" name="Layer 4" opacity="1">
        <g id="Shape7">
            <desc shapeID="7" type="2" basicInfo-basicType="0" basicInfo-roundedRectRadius="12" basicInfo-polygonSides="6" basicInfo-starPoints="5" bounding="rect(-38.7397,-16.7872,77.4793,33.5744)" text="/ SHOW" font-familyName="Helvetica" font-pixelSize="20" font-bold="1" font-underline="0" font-alignment="1" strokeStyle="0" markerStart="0" markerEnd="0" shadowEnabled="0" shadowOffsetX="0" shadowOffsetY="2" shadowBlur="4" shadowOpacity="160" blurEnabled="0" blurRadius="4" transform="matrix(1,0,0,1,75.6924,72.9902)" pers-center="0,0" pers-size="0,0" pers-start="0,0" pers-end="0,0" locked="0" mesh="" flag=""/>
            <path id="shapePath7" d="M43.5342,63.7656 L45.8486,63.7656 L40.2529,78.5996 L37.958,78.5996 L43.5342,63.7656 M53.8467,74.1562 C53.9378,74.8138 54.1169,75.3053 54.3838,75.6308 C54.8721,76.2233 55.7087,76.5195 56.8936,76.5195 C57.6032,76.5195 58.1794,76.4414 58.6221,76.2851 C59.4619,75.9856 59.8819,75.429 59.8819,74.6152 C59.8819,74.1399 59.6735,73.7721 59.2569,73.5117 C58.8402,73.2578 58.1859,73.0332 57.294,72.8379 L55.7705,72.4961 C54.2731,72.1575 53.238,71.7897 52.6651,71.3925 C51.695,70.7285 51.21,69.6901 51.21,68.2773 C51.21,66.9882 51.6787,65.9173 52.6162,65.0644 C53.5537,64.2115 54.9307,63.7851 56.7471,63.7851 C58.264,63.7851 59.558,64.1871 60.6289,64.9912 C61.6999,65.7952 62.2614,66.9622 62.3135,68.4921 L59.4229,68.4921 C59.3708,67.6263 58.9932,67.011 58.2901,66.6464 C57.8213,66.4056 57.2386,66.2851 56.542,66.2851 C55.7673,66.2851 55.1488,66.4414 54.6865,66.7539 C54.2243,67.0664 53.9932,67.5026 53.9932,68.0625 C53.9932,68.5768 54.221,68.9609 54.6768,69.2148 C54.9697,69.3841 55.5947,69.5826 56.5518,69.8105 L59.0322,70.4062 C60.1195,70.6666 60.9398,71.0149 61.4932,71.4511 C62.3526,72.1282 62.7822,73.108 62.7822,74.3906 C62.7822,75.7057 62.2793,76.7978 61.2735,77.667 C60.2676,78.5361 58.8467,78.9707 57.0108,78.9707 C55.1358,78.9707 53.6611,78.5426 52.5869,77.6865 C51.5127,76.8304 50.9756,75.6536 50.9756,74.1562 L53.8467,74.1562 M64.9776,78.5996 L64.9776,64.205 L67.9561,64.205 L67.9561,69.6933 L73.5811,69.6933 L73.5811,64.205 L76.5694,64.205 L76.5694,78.5996 L73.5811,78.5996 L73.5811,72.1738 L67.9561,72.1738 L67.9561,78.5996 L64.9776,78.5996 M88.6387,75.1328 C89.3386,74.2539 89.6885,73.0039 89.6885,71.3828 C89.6885,69.7682 89.3386,68.5198 88.6387,67.6377 C87.9388,66.7555 86.9932,66.3144 85.8018,66.3144 C84.6104,66.3144 83.6598,66.7539 82.9502,67.6328 C82.2406,68.5117 81.8858,69.7617 81.8858,71.3828 C81.8858,73.0039 82.2406,74.2539 82.9502,75.1328 C83.6598,76.0117 84.6104,76.4511 85.8018,76.4511 C86.9932,76.4511 87.9388,76.0117 88.6387,75.1328 M90.5186,77.3203 C89.4313,78.4401 87.8591,79 85.8018,79 C83.7445,79 82.1722,78.4401 81.085,77.3203 C79.6266,75.9466 78.8975,73.9674 78.8975,71.3828 C78.8975,68.7461 79.6266,66.7669 81.085,65.4453 C82.1722,64.3255 83.7445,63.7656 85.8018,63.7656 C87.8591,63.7656 89.4313,64.3255 90.5186,65.4453 C91.9704,66.7669 92.6963,68.7461 92.6963,71.3828 C92.6963,73.9674 91.9704,75.9466 90.5186,77.3203 M96.9444,64.205 L98.8486,72.4472 L99.2588,74.7421 L99.6787,72.4961 L101.3,64.205 L104.474,64.205 L106.183,72.4472 L106.622,74.7421 L107.062,72.5351 L108.985,64.205 L112.042,64.205 L107.989,78.5996 L105.118,78.5996 L103.38,70.1816 L102.872,67.3984 L102.364,70.1816 L100.626,78.5996 L97.833,78.5996 L93.751,64.205 L96.9444,64.205 Z" style="stroke:none;fill-rule:nonzero;fill:#ffffff;fill-opacity:0.780392;"/>
        </g>
    </g>
</svg>
