<?xml version="1.0"?>
<svg version="1.1" xmlns="http://www.w3.org/2000/svg" xmlns:xlink="http://www.w3.org/1999/xlink" width="200" height="140">
    <desc iVinci="yes" version="4.6" gridStep="20" showGrid="no" snapToGrid="no" codePlatform="0"/>
    <g id="Layer1" name="Layer 1" opacity="1">
        <g id="Shape1">
            <desc shapeID="1" type="0" basicInfo-basicType="2" basicInfo-roundedRectRadius="9" basicInfo-polygonSides="6" basicInfo-starPoints="5" bounding="rect(-45.4629,-26.8938,90.9257,53.7875)" text="" font-familyName="Apple SD 산돌고딕 Neo" font-pixelSize="17" font-bold="1" font-underline="0" font-alignment="1" strokeStyle="0" markerStart="0" markerEnd="0" shadowEnabled="0" shadowOffsetX="0" shadowOffsetY="2" shadowBlur="4" shadowOpacity="160" blurEnabled="0" blurRadius="4" transform="matrix(1.99669,0,0,2.03821,99.9999,77.7479)" pers-center="0,0" pers-size="0,0" pers-start="0,0" pers-end="0,0" locked="0" mesh="" flag=""/>
            <path id="shapePath1" d="M9.22457,41.2766 C9.22457,31.1455 17.2701,22.9327 27.1947,22.9327 L172.805,22.9327 C182.729,22.9327 190.775,31.1455 190.775,41.2766 L190.775,114.219 C190.775,124.349 182.729,132.563 172.805,132.563 L27.1947,132.563 C17.2701,132.563 9.22457,124.349 9.22457,114.219 L9.22457,41.2766 Z" style="stroke:none;fill-rule:evenodd;fill:url(#linearGradientFill1);fill-opacity:1;"/><defs><linearGradient id="linearGradientFill1" gradientUnits="userSpaceOnUse" x1="55.0121" y1="6.40103" x2="59.0483" y2="135.992"><stop offset="0" stop-color="#55bcfe" stop-opacity="1"/><stop offset="1" stop-color="#16a5fe" stop-opacity="1"/></linearGradient></defs>
        </g>
        <g id="Shape2">
            <desc shapeID="2" type="0" basicInfo-basicType="2" basicInfo-roundedRectRadius="6" basicInfo-polygonSides="6" basicInfo-starPoints="5" bounding="rect(-21.4613,-8.635,42.9225,17.2699)" text="" font-familyName="Apple SD 산돌고딕 Neo" font-pixelSize="17" font-bold="1" font-underline="0" font-alignment="1" strokeStyle="0" markerStart="0" markerEnd="0" shadowEnabled="0" shadowOffsetX="0" shadowOffsetY="2" shadowBlur="4" shadowOpacity="160" blurEnabled="0" blurRadius="4" transform="matrix(1.79448,0,0,1.79448,71.5543,22.9327)" pers-center="0,0" pers-size="0,0" pers-start="0,0" pers-end="0,0" locked="0" mesh="" flag=""/>
            <path id="shapePath2" d="M33.0425,18.2043 C33.0425,12.2579 37.863,7.4374 43.8094,7.4374 L99.2992,7.4374 C105.246,7.4374 110.066,12.2579 110.066,18.2043 L110.066,27.661 C110.066,33.6076 105.246,38.4279 99.2992,38.4279 L43.8094,38.4279 C37.863,38.4279 33.0425,33.6076 33.0425,27.661 L33.0425,18.2043 Z" style="stroke:none;fill-rule:evenodd;fill:url(#linearGradientFill2);fill-opacity:1;"/><defs><linearGradient id="linearGradientFill2" gradientUnits="userSpaceOnUse" x1="55.0122" y1="3.98816" x2="59.0484" y2="152.493"><stop offset="0" stop-color="#55bcfe" stop-opacity="1"/><stop offset="1" stop-color="#16a5fe" stop-opacity="1"/></linearGradient></defs>
        </g>
        <g id="Shape3">
            <desc shapeID="3" type="0" basicInfo-basicType="2" basicInfo-roundedRectRadius="6" basicInfo-polygonSides="6" basicInfo-starPoints="5" bounding="rect(-15.2879,-8.635,30.5758,17.2699)" text="" font-familyName="Apple SD 산돌고딕 Neo" font-pixelSize="17" font-bold="1" font-underline="0" font-alignment="1" strokeStyle="0" markerStart="0" markerEnd="0" shadowEnabled="0" shadowOffsetX="0" shadowOffsetY="2" shadowBlur="4" shadowOpacity="160" blurEnabled="0" blurRadius="4" transform="matrix(1.79448,0,0,1.79448,100,22.9327)" pers-center="0,0" pers-size="0,0" pers-start="0,0" pers-end="0,0" locked="0" mesh="" flag=""/>
            <path id="shapePath3" d="M72.5663,18.2043 C72.5663,12.2579 77.3868,7.4374 83.3332,7.4374 L116.667,7.4374 C122.613,7.4374 127.434,12.2579 127.434,18.2043 L127.434,27.661 C127.434,33.6076 122.613,38.4279 116.667,38.4279 L83.3332,38.4279 C77.3868,38.4279 72.5663,33.6076 72.5663,27.661 L72.5663,18.2043 Z" style="stroke:none;fill-rule:evenodd;fill:#55bcfe;fill-opacity:0.490196;"/>
        </g>
    </g>
    <g id="Layer2" name="Layer 4" opacity="1">
        <g id="Shape4">
            <desc shapeID="4" type="2" basicInfo-basicType="0" basicInfo-roundedRectRadius="12" basicInfo-polygonSides="6" basicInfo-starPoints="5" bounding="rect(-69.5177,-30.1243,139.035,60.2487)" text="/ SHOW" font-familyName="Helvetica" font-pixelSize="37" font-bold="1" font-underline="0" font-alignment="1" strokeStyle="0" markerStart="0" markerEnd="0" shadowEnabled="0" shadowOffsetX="0" shadowOffsetY="2" shadowBlur="4" shadowOpacity="160" blurEnabled="0" blurRadius="4" transform="matrix(1,0,0,1,101.275,80.9761)" pers-center="0,0" pers-size="0,0" pers-start="0,0" pers-end="0,0" locked="0" mesh="" flag=""/>
            <path id="shapePath4" d="M41.7706,63.9082 L46.0523,63.9082 L35.7003,91.3511 L31.4547,91.3511 L41.7706,63.9082 M60.8565,83.1309 C61.0252,84.3474 61.3564,85.2567 61.8502,85.8589 C62.7535,86.9549 64.3012,87.503 66.4933,87.503 C67.8061,87.503 68.872,87.3584 69.691,87.0694 C71.2447,86.5153 72.0216,85.4855 72.0216,83.98 C72.0216,83.1008 71.6362,82.4203 70.8653,81.9385 C70.0945,81.4688 68.884,81.0532 67.234,80.6919 L64.4156,80.0596 C61.6454,79.4333 59.7304,78.7528 58.6705,78.0181 C56.8759,76.7896 55.9786,74.8685 55.9786,72.2549 C55.9786,69.8701 56.8458,67.8889 58.5802,66.3111 C60.3146,64.7333 62.8619,63.9444 66.2223,63.9444 C69.0286,63.9444 71.4224,64.6881 73.4037,66.1756 C75.3849,67.663 76.4238,69.822 76.5201,72.6524 L71.1725,72.6524 C71.0761,71.0505 70.3775,69.9123 69.0768,69.2378 C68.2096,68.7922 67.1316,68.5694 65.8429,68.5694 C64.4096,68.5694 63.2654,68.8584 62.4103,69.4365 C61.5551,70.0147 61.1275,70.8216 61.1275,71.8574 C61.1275,72.8089 61.5491,73.5196 62.3922,73.9893 C62.9342,74.3024 64.0904,74.6698 65.8609,75.0913 L70.4498,76.1934 C72.4612,76.6752 73.9788,77.3195 75.0025,78.1265 C76.5924,79.3791 77.3873,81.1918 77.3873,83.5645 C77.3873,85.9974 76.4569,88.0178 74.596,89.6258 C72.7352,91.2337 70.1065,92.0376 66.7101,92.0376 C63.2413,92.0376 60.5133,91.2457 58.526,89.6619 C56.5387,88.0781 55.545,85.9011 55.545,83.1309 L60.8565,83.1309 M81.4635,91.3511 L81.4635,64.7212 L86.9737,64.7212 L86.9737,74.8745 L97.38,74.8745 L97.38,64.7212 L102.908,64.7212 L102.908,91.3511 L97.38,91.3511 L97.38,79.4634 L86.9737,79.4634 L86.9737,91.3511 L81.4635,91.3511 M125.246,84.9375 C126.541,83.3115 127.188,80.999 127.188,78 C127.188,75.013 126.541,72.7036 125.246,71.0716 C123.951,69.4396 122.202,68.6236 119.998,68.6236 C117.794,68.6236 116.035,69.4365 114.722,71.0625 C113.409,72.6885 112.753,75.001 112.753,78 C112.753,80.999 113.409,83.3115 114.722,84.9375 C116.035,86.5635 117.794,87.3765 119.998,87.3765 C122.202,87.3765 123.951,86.5635 125.246,84.9375 M128.724,88.9844 C126.712,91.056 123.804,92.0918 119.998,92.0918 C116.192,92.0918 113.283,91.056 111.272,88.9844 C108.574,86.4431 107.225,82.7816 107.225,78 C107.225,73.1221 108.574,69.4606 111.272,67.0156 C113.283,64.944 116.192,63.9082 119.998,63.9082 C123.804,63.9082 126.712,64.944 128.724,67.0156 C131.41,69.4606 132.753,73.1221 132.753,78 C132.753,82.7816 131.41,86.4431 128.724,88.9844 M140.615,64.7212 L144.138,79.9693 L144.897,84.2149 L145.674,80.0596 L148.673,64.7212 L154.545,64.7212 L157.706,79.9693 L158.519,84.2149 L159.332,80.1319 L162.891,64.7212 L168.546,64.7212 L161.048,91.3511 L155.737,91.3511 L152.521,75.7779 L151.582,70.6289 L150.642,75.7779 L147.426,91.3511 L142.259,91.3511 L134.708,64.7212 L140.615,64.7212 Z" style="stroke:none;fill-rule:nonzero;fill:#ffffff;fill-opacity:0.780392;"/>
        </g>
    </g>
</svg>
