<?xml version="1.0"?>
<svg version="1.1" xmlns="http://www.w3.org/2000/svg" xmlns:xlink="http://www.w3.org/1999/xlink" width="200" height="110">
    <desc iVinci="yes" version="4.6" gridStep="20" showGrid="no" snapToGrid="no" codePlatform="0"/>
    <g id="Layer1" name="Layer 2" opacity="1">
        <g id="Shape1">
            <desc shapeID="1" type="0" basicInfo-basicType="2" basicInfo-roundedRectRadius="23" basicInfo-polygonSides="6" basicInfo-starPoints="5" bounding="rect(-64.5,-64.5,129,129)" text="" font-familyName="Helvetica" font-pixelSize="20" font-bold="0" font-underline="0" font-alignment="1" strokeStyle="0" markerStart="0" markerEnd="0" shadowEnabled="0" shadowOffsetX="0" shadowOffsetY="2" shadowBlur="4" shadowOpacity="160" blurEnabled="0" blurRadius="4" transform="matrix(1,0,0,1,802,168)" pers-center="0,0" pers-size="0,0" pers-start="0,0" pers-end="0,0" locked="0" mesh="" flag=""/>
            <path id="shapePath1" d="M737.5,126.5 C737.5,113.798 747.797,103.5 760.5,103.5 L843.5,103.5 C856.203,103.5 866.5,113.798 866.5,126.5 L866.5,209.5 C866.5,222.203 856.203,232.5 843.5,232.5 L760.5,232.5 C747.797,232.5 737.5,222.203 737.5,209.5 L737.5,126.5 Z" style="stroke:#323232;stroke-opacity:1;stroke-width:0;stroke-linejoin:miter;stroke-miterlimit:2;stroke-linecap:round;fill-rule:evenodd;fill:url(#linearGradientFill1);fill-opacity:1;"/><defs><linearGradient id="linearGradientFill1" gradientUnits="userSpaceOnUse" x1="802" y1="119" x2="802" y2="223"><stop offset="0" stop-color="#b0ebdf" stop-opacity="1"/><stop offset="1" stop-color="#9ee1ff" stop-opacity="1"/></linearGradient></defs>
        </g>
    </g>
    <g id="Layer2" name="Layer 1" opacity="1">
        <g id="Shape2">
            <desc shapeID="2" type="0" basicInfo-basicType="2" basicInfo-roundedRectRadius="9" basicInfo-polygonSides="6" basicInfo-starPoints="5" bounding="rect(-45.4632,-26.8934,90.9262,53.7869)" text="" font-familyName="Apple SD 산돌고딕 Neo" font-pixelSize="17" font-bold="1" font-underline="0" font-alignment="1" strokeStyle="0" markerStart="0" markerEnd="0" shadowEnabled="0" shadowOffsetX="0" shadowOffsetY="2" shadowBlur="4" shadowOpacity="160" blurEnabled="0" blurRadius="4" transform="matrix(0.623181,0,0,0.728986,54.3651,41.7247)" pers-center="0,0" pers-size="0,0" pers-start="0,0" pers-end="0,0" locked="0" mesh="" flag=""/>
            <path id="shapePath2" d="M26.0333,28.6807 C26.0333,25.0572 28.5443,22.1198 31.6418,22.1198 L77.0882,22.1198 C80.1854,22.1198 82.6968,25.0572 82.6968,28.6807 L82.6968,54.7691 C82.6968,58.3924 80.1854,61.3297 77.0882,61.3297 L31.6418,61.3297 C28.5443,61.3297 26.0333,58.3924 26.0333,54.7691 L26.0333,28.6807 Z" style="stroke:none;fill-rule:evenodd;fill:url(#linearGradientFill2);fill-opacity:1;"/><defs><linearGradient id="linearGradientFill2" gradientUnits="userSpaceOnUse" x1="40.324" y1="16.2067" x2="41.5837" y2="62.556"><stop offset="0" stop-color="#55bcfe" stop-opacity="1"/><stop offset="1" stop-color="#16a5fe" stop-opacity="1"/></linearGradient></defs>
        </g>
        <g id="Shape3">
            <desc shapeID="3" type="0" basicInfo-basicType="2" basicInfo-roundedRectRadius="6" basicInfo-polygonSides="6" basicInfo-starPoints="5" bounding="rect(-21.4615,-8.63506,42.9232,17.2701)" text="" font-familyName="Apple SD 산돌고딕 Neo" font-pixelSize="17" font-bold="1" font-underline="0" font-alignment="1" strokeStyle="0" markerStart="0" markerEnd="0" shadowEnabled="0" shadowOffsetX="0" shadowOffsetY="2" shadowBlur="4" shadowOpacity="160" blurEnabled="0" blurRadius="4" transform="matrix(0.560073,0,0,0.560073,45.4869,22.12)" pers-center="0,0" pers-size="0,0" pers-start="0,0" pers-end="0,0" locked="0" mesh="" flag=""/>
            <path id="shapePath3" d="M33.4669,20.644 C33.4669,18.7881 34.9714,17.2837 36.8274,17.2837 L54.1462,17.2837 C56.0021,17.2837 57.507,18.7881 57.507,20.644 L57.507,23.5957 C57.507,25.4517 56.0021,26.9562 54.1462,26.9562 L36.8274,26.9562 C34.9714,26.9562 33.4669,25.4517 33.4669,23.5957 L33.4669,20.644 Z" style="stroke:none;fill-rule:evenodd;fill:url(#linearGradientFill3);fill-opacity:1;"/><defs><linearGradient id="linearGradientFill3" gradientUnits="userSpaceOnUse" x1="40.3241" y1="16.2073" x2="41.5837" y2="62.5569"><stop offset="0" stop-color="#55bcfe" stop-opacity="1"/><stop offset="1" stop-color="#16a5fe" stop-opacity="1"/></linearGradient></defs>
        </g>
        <g id="Shape4">
            <desc shapeID="4" type="0" basicInfo-basicType="2" basicInfo-roundedRectRadius="6" basicInfo-polygonSides="6" basicInfo-starPoints="5" bounding="rect(-15.2881,-8.63506,30.5762,17.2701)" text="" font-familyName="Apple SD 산돌고딕 Neo" font-pixelSize="17" font-bold="1" font-underline="0" font-alignment="1" strokeStyle="0" markerStart="0" markerEnd="0" shadowEnabled="0" shadowOffsetX="0" shadowOffsetY="2" shadowBlur="4" shadowOpacity="160" blurEnabled="0" blurRadius="4" transform="matrix(0.560073,0,0,0.560073,54.3651,22.12)" pers-center="0,0" pers-size="0,0" pers-start="0,0" pers-end="0,0" locked="0" mesh="" flag=""/>
            <path id="shapePath4" d="M45.8026,20.644 C45.8026,18.7881 47.3071,17.2837 49.1631,17.2837 L59.567,17.2837 C61.4225,17.2837 62.9275,18.7881 62.9275,20.644 L62.9275,23.5957 C62.9275,25.4517 61.4225,26.9562 59.567,26.9562 L49.1631,26.9562 C47.3071,26.9562 45.8026,25.4517 45.8026,23.5957 L45.8026,20.644 Z" style="stroke:none;fill-rule:evenodd;fill:#55bcfe;fill-opacity:0.490196;"/>
        </g>
    </g>
    <g id="Layer3" name="Layer 4" opacity="1">
        <g id="Shape5">
            <desc shapeID="5" type="2" basicInfo-basicType="0" basicInfo-roundedRectRadius="12" basicInfo-polygonSides="6" basicInfo-starPoints="5" bounding="rect(-62.2168,-26.9606,124.433,53.9212)" text="WFS" font-familyName="Helvetica" font-pixelSize="36" font-bold="1" font-underline="0" font-alignment="1" strokeStyle="0" markerStart="0" markerEnd="0" shadowEnabled="0" shadowOffsetX="0" shadowOffsetY="2" shadowBlur="4" shadowOpacity="160" blurEnabled="0" blurRadius="4" transform="matrix(1,0,0,1,134.566,46.4409)" pers-center="0,0" pers-size="0,0" pers-start="0,0" pers-end="0,0" locked="0" mesh="" flag=""/>
            <path id="shapePath5" d="M100.873,30.2964 L104.3,45.1323 L105.039,49.2632 L105.795,45.2202 L108.712,30.2964 L114.425,30.2964 L117.502,45.1323 L118.293,49.2632 L119.084,45.2905 L122.546,30.2964 L128.048,30.2964 L120.753,56.2065 L115.586,56.2065 L112.457,41.0542 L111.543,36.0444 L110.628,41.0542 L107.5,56.2065 L102.472,56.2065 L95.1246,30.2964 L100.873,30.2964 M131.308,30.3315 L149.677,30.3315 L149.677,34.8843 L136.687,34.8843 L136.687,40.8432 L148.06,40.8432 L148.06,45.3432 L136.687,45.3432 L136.687,56.2065 L131.308,56.2065 L131.308,30.3315 M157.212,48.2085 C157.377,49.3921 157.699,50.2768 158.179,50.8628 C159.058,51.9292 160.564,52.4624 162.697,52.4624 C163.974,52.4624 165.011,52.3218 165.808,52.0405 C167.32,51.5014 168.076,50.4995 168.076,49.0346 C168.076,48.1792 167.701,47.5171 166.951,47.0483 C166.201,46.5913 165.023,46.187 163.418,45.8354 L160.675,45.2202 C157.98,44.6108 156.117,43.9487 155.086,43.2339 C153.339,42.0386 152.466,40.1694 152.466,37.6264 C152.466,35.3061 153.31,33.3784 154.998,31.8432 C156.685,30.3081 159.164,29.5405 162.433,29.5405 C165.164,29.5405 167.493,30.2641 169.42,31.7114 C171.348,33.1587 172.359,35.2593 172.453,38.0132 L167.25,38.0132 C167.156,36.4546 166.476,35.3471 165.211,34.6909 C164.367,34.2573 163.318,34.0405 162.064,34.0405 C160.67,34.0405 159.556,34.3218 158.724,34.8843 C157.892,35.4468 157.476,36.2319 157.476,37.2397 C157.476,38.1655 157.886,38.8569 158.707,39.3139 C159.234,39.6186 160.359,39.9761 162.082,40.3862 L166.546,41.4585 C168.503,41.9272 169.98,42.5542 170.976,43.3393 C172.523,44.5581 173.296,46.3218 173.296,48.6304 C173.296,50.9975 172.391,52.9634 170.581,54.5278 C168.77,56.0923 166.212,56.8745 162.908,56.8745 C159.533,56.8745 156.878,56.104 154.945,54.563 C153.011,53.022 152.045,50.9038 152.045,48.2085 L157.212,48.2085 Z" style="stroke:none;fill-rule:nonzero;fill:#3cb3db;fill-opacity:1;"/>
        </g>
        <g id="Shape6">
            <desc shapeID="6" type="2" basicInfo-basicType="0" basicInfo-roundedRectRadius="12" basicInfo-polygonSides="6" basicInfo-starPoints="5" bounding="rect(-144.525,-26.9606,289.05,53.9212)" text="web file system" font-familyName="Helvetica" font-pixelSize="22" font-bold="0" font-underline="0" font-alignment="1" strokeStyle="0" markerStart="0" markerEnd="0" shadowEnabled="0" shadowOffsetX="0" shadowOffsetY="2" shadowBlur="4" shadowOpacity="160" blurEnabled="0" blurRadius="4" transform="matrix(1,0,0,1,100.603,76.4479)" pers-center="0,0" pers-size="0,0" pers-start="0,0" pers-end="0,0" locked="0" mesh="" flag=""/>
            <path id="shapePath6" d="M27.7563,70.9274 L29.9692,79.9938 L32.2143,70.9274 L34.3842,70.9274 L36.6401,79.9401 L38.9926,70.9274 L40.9262,70.9274 L37.5854,82.4323 L35.5766,82.4323 L33.2348,73.527 L30.9682,82.4323 L28.9594,82.4323 L25.6401,70.9274 L27.7563,70.9274 M49.9048,71.2443 C50.671,71.6274 51.2547,72.1234 51.6557,72.7321 C52.0424,73.3122 52.3003,73.9889 52.4292,74.7624 C52.5438,75.2923 52.601,76.1374 52.601,77.2975 L44.1684,77.2975 C44.2042,78.4649 44.4799,79.4012 44.9956,80.1066 C45.5112,80.812 46.3097,81.1647 47.3911,81.1647 C48.4008,81.1647 49.2065,80.8317 49.8081,80.1657 C50.1518,79.779 50.3953,79.3314 50.5385,78.8229 L52.4399,78.8229 C52.3898,79.2454 52.2233,79.7163 51.9404,80.2355 C51.6575,80.7547 51.3406,81.179 50.9897,81.5085 C50.4025,82.0814 49.6756,82.4681 48.8091,82.6686 C48.3436,82.7832 47.8172,82.8405 47.2299,82.8405 C45.7977,82.8405 44.5838,82.3195 43.5883,81.2775 C42.5929,80.2355 42.0952,78.7764 42.0952,76.9001 C42.0952,75.0524 42.5965,73.5521 43.5991,72.3991 C44.6017,71.2461 45.9122,70.6696 47.5307,70.6696 C48.3471,70.6696 49.1385,70.8612 49.9048,71.2443 M50.6137,75.7614 C50.535,74.9235 50.3523,74.2539 50.0659,73.7526 C49.5359,72.8216 48.6515,72.3561 47.4126,72.3561 C46.5245,72.3561 45.7798,72.6766 45.1782,73.3176 C44.5766,73.9585 44.2579,74.7731 44.2221,75.7614 L50.6137,75.7614 M54.8237,66.5983 L56.7036,66.5983 L56.7036,72.3239 C57.1261,71.7725 57.631,71.3517 58.2182,71.0617 C58.8055,70.7717 59.4428,70.6266 60.1303,70.6266 C61.5626,70.6266 62.7246,71.119 63.6162,72.1037 C64.5078,73.0884 64.9536,74.5404 64.9536,76.4596 C64.9536,78.2786 64.5132,79.7897 63.6323,80.9928 C62.7514,82.196 61.5304,82.7975 59.9692,82.7975 C59.0955,82.7975 58.3579,82.5863 57.7563,82.1637 C57.3982,81.9131 57.0151,81.512 56.6069,80.9606 L56.6069,82.4323 L54.8237,82.4323 L54.8237,66.5983 M62.1982,79.8434 C62.7174,79.0127 62.977,77.917 62.977,76.5563 C62.977,75.346 62.7174,74.3434 62.1982,73.5485 C61.679,72.7536 60.9145,72.3561 59.9048,72.3561 C59.0239,72.3561 58.2522,72.682 57.5898,73.3337 C56.9274,73.9854 56.5962,75.0596 56.5962,76.5563 C56.5962,77.6377 56.7322,78.515 57.0044,79.1882 C57.5128,80.4557 58.4617,81.0895 59.851,81.0895 C60.8966,81.0895 61.679,80.6742 62.1982,79.8434 M74.2202,67.4147 C74.6714,66.7559 75.5415,66.4264 76.8305,66.4264 C76.9523,66.4264 77.0776,66.43 77.2065,66.4372 C77.3354,66.4443 77.4822,66.4551 77.6469,66.4694 L77.6469,68.2311 C77.4464,68.2168 77.3014,68.2078 77.2119,68.2043 C77.1224,68.2007 77.0382,68.1989 76.9594,68.1989 C76.3722,68.1989 76.0213,68.3511 75.9067,68.6554 C75.7921,68.9598 75.7348,69.735 75.7348,70.9811 L77.6469,70.9811 L77.6469,72.5065 L75.7133,72.5065 L75.7133,82.4323 L73.8012,82.4323 L73.8012,72.5065 L72.2007,72.5065 L72.2007,70.9811 L73.8012,70.9811 L73.8012,69.1764 C73.8299,68.3744 73.9695,67.7871 74.2202,67.4147 M79.5053,68.8434 L79.5053,66.652 L81.4389,66.652 L81.4389,68.8434 L79.5053,68.8434 M79.5053,70.9811 L81.4389,70.9811 L81.4389,82.4323 L79.5053,82.4323 L79.5053,70.9811 M84.3716,66.652 L86.3051,66.652 L86.3051,82.4323 L84.3716,82.4323 L84.3716,66.652 M96.3579,71.2443 C97.1242,71.6274 97.7078,72.1234 98.1089,72.7321 C98.4956,73.3122 98.7534,73.9889 98.8823,74.7624 C98.9969,75.2923 99.0542,76.1374 99.0542,77.2975 L90.6216,77.2975 C90.6574,78.4649 90.9331,79.4012 91.4487,80.1066 C91.9643,80.812 92.7628,81.1647 93.8442,81.1647 C94.854,81.1647 95.6596,80.8317 96.2612,80.1657 C96.6049,79.779 96.8484,79.3314 96.9917,78.8229 L98.893,78.8229 C98.8429,79.2454 98.6764,79.7163 98.3935,80.2355 C98.1106,80.7547 97.7938,81.179 97.4428,81.5085 C96.8556,82.0814 96.1287,82.4681 95.2622,82.6686 C94.7967,82.7832 94.2703,82.8405 93.6831,82.8405 C92.2508,82.8405 91.0369,82.3195 90.0415,81.2775 C89.046,80.2355 88.5483,78.7764 88.5483,76.9001 C88.5483,75.0524 89.0496,73.5521 90.0522,72.3991 C91.0548,71.2461 92.3654,70.6696 93.9839,70.6696 C94.8003,70.6696 95.5916,70.8612 96.3579,71.2443 M97.0669,75.7614 C96.9881,74.9235 96.8055,74.2539 96.519,73.7526 C95.9891,72.8216 95.1046,72.3561 93.8657,72.3561 C92.9777,72.3561 92.2329,72.6766 91.6313,73.3176 C91.0298,73.9585 90.7111,74.7731 90.6753,75.7614 L97.0669,75.7614 M108.686,78.8229 C108.743,79.4675 108.904,79.9616 109.169,80.3053 C109.656,80.9284 110.501,81.2399 111.705,81.2399 C112.421,81.2399 113.051,81.0842 113.595,80.7726 C114.139,80.4611 114.412,79.9795 114.412,79.3278 C114.412,78.8337 114.193,78.4577 113.756,78.1999 C113.477,78.0423 112.926,77.8597 112.102,77.652 L110.566,77.2653 C109.585,77.0218 108.861,76.7497 108.396,76.4489 C107.565,75.9261 107.15,75.2028 107.15,74.279 C107.15,73.1904 107.542,72.3096 108.326,71.6364 C109.11,70.9632 110.165,70.6266 111.49,70.6266 C113.223,70.6266 114.472,71.1351 115.239,72.152 C115.719,72.7966 115.951,73.4912 115.937,74.236 L114.111,74.236 C114.075,73.7992 113.921,73.4017 113.649,73.0436 C113.205,72.5352 112.435,72.2809 111.339,72.2809 C110.609,72.2809 110.056,72.4206 109.68,72.6999 C109.304,72.9792 109.116,73.348 109.116,73.8063 C109.116,74.3076 109.363,74.7087 109.857,75.0094 C110.143,75.1885 110.566,75.346 111.124,75.4821 L112.403,75.7936 C113.792,76.1302 114.723,76.4561 115.196,76.7712 C115.948,77.2653 116.324,78.0423 116.324,79.1022 C116.324,80.1263 115.935,81.0107 115.158,81.7555 C114.381,82.5003 113.198,82.8727 111.608,82.8727 C109.896,82.8727 108.684,82.4842 107.972,81.7072 C107.259,80.9302 106.878,79.9688 106.828,78.8229 L108.686,78.8229 M125.723,70.9274 L127.861,70.9274 C127.589,71.665 126.984,73.348 126.045,75.9762 C125.344,77.9528 124.756,79.5641 124.284,80.8102 C123.166,83.7464 122.379,85.5368 121.92,86.1813 C121.462,86.8259 120.674,87.1481 119.557,87.1481 C119.285,87.1481 119.075,87.1374 118.929,87.1159 C118.782,87.0944 118.601,87.055 118.386,86.9977 L118.386,85.236 C118.723,85.3291 118.966,85.3864 119.117,85.4079 C119.267,85.4294 119.4,85.4401 119.514,85.4401 C119.872,85.4401 120.135,85.381 120.304,85.2629 C120.472,85.1447 120.613,84.9997 120.728,84.8278 C120.764,84.7705 120.893,84.4769 121.115,83.9469 C121.337,83.417 121.498,83.0231 121.598,82.7653 L117.344,70.9274 L119.536,70.9274 L122.619,80.2946 L125.723,70.9274 M130.686,78.8229 C130.743,79.4675 130.904,79.9616 131.169,80.3053 C131.656,80.9284 132.501,81.2399 133.705,81.2399 C134.421,81.2399 135.051,81.0842 135.595,80.7726 C136.139,80.4611 136.412,79.9795 136.412,79.3278 C136.412,78.8337 136.193,78.4577 135.756,78.1999 C135.477,78.0423 134.926,77.8597 134.102,77.652 L132.566,77.2653 C131.585,77.0218 130.861,76.7497 130.396,76.4489 C129.565,75.9261 129.15,75.2028 129.15,74.279 C129.15,73.1904 129.542,72.3096 130.326,71.6364 C131.11,70.9632 132.165,70.6266 133.49,70.6266 C135.223,70.6266 136.472,71.1351 137.239,72.152 C137.719,72.7966 137.951,73.4912 137.937,74.236 L136.111,74.236 C136.075,73.7992 135.921,73.4017 135.649,73.0436 C135.205,72.5352 134.435,72.2809 133.339,72.2809 C132.609,72.2809 132.056,72.4206 131.68,72.6999 C131.304,72.9792 131.116,73.348 131.116,73.8063 C131.116,74.3076 131.363,74.7087 131.857,75.0094 C132.143,75.1885 132.566,75.346 133.124,75.4821 L134.403,75.7936 C135.792,76.1302 136.723,76.4561 137.196,76.7712 C137.948,77.2653 138.324,78.0423 138.324,79.1022 C138.324,80.1263 137.935,81.0107 137.158,81.7555 C136.381,82.5003 135.198,82.8727 133.608,82.8727 C131.896,82.8727 130.684,82.4842 129.972,81.7072 C129.259,80.9302 128.878,79.9688 128.828,78.8229 L130.686,78.8229 M140.923,67.7155 L142.878,67.7155 L142.878,70.9274 L144.715,70.9274 L144.715,72.5065 L142.878,72.5065 L142.878,80.0153 C142.878,80.4163 143.014,80.6849 143.287,80.821 C143.437,80.8997 143.688,80.9391 144.039,80.9391 C144.132,80.9391 144.232,80.9373 144.339,80.9338 C144.447,80.9302 144.572,80.9212 144.715,80.9069 L144.715,82.4323 C144.493,82.4967 144.262,82.5433 144.022,82.5719 C143.783,82.6006 143.523,82.6149 143.244,82.6149 C142.341,82.6149 141.729,82.384 141.407,81.922 C141.084,81.4601 140.923,80.8604 140.923,80.1227 L140.923,72.5065 L139.366,72.5065 L139.366,70.9274 L140.923,70.9274 L140.923,67.7155 M153.811,71.2443 C154.577,71.6274 155.161,72.1234 155.562,72.7321 C155.949,73.3122 156.207,73.9889 156.335,74.7624 C156.45,75.2923 156.507,76.1374 156.507,77.2975 L148.075,77.2975 C148.11,78.4649 148.386,79.4012 148.902,80.1066 C149.417,80.812 150.216,81.1647 151.297,81.1647 C152.307,81.1647 153.113,80.8317 153.714,80.1657 C154.058,79.779 154.302,79.3314 154.445,78.8229 L156.346,78.8229 C156.296,79.2454 156.13,79.7163 155.847,80.2355 C155.564,80.7547 155.247,81.179 154.896,81.5085 C154.309,82.0814 153.582,82.4681 152.715,82.6686 C152.25,82.7832 151.723,82.8405 151.136,82.8405 C149.704,82.8405 148.49,82.3195 147.495,81.2775 C146.499,80.2355 146.001,78.7764 146.001,76.9001 C146.001,75.0524 146.503,73.5521 147.505,72.3991 C148.508,71.2461 149.818,70.6696 151.437,70.6696 C152.253,70.6696 153.045,70.8612 153.811,71.2443 M154.52,75.7614 C154.441,74.9235 154.259,74.2539 153.972,73.7526 C153.442,72.8216 152.558,72.3561 151.319,72.3561 C150.431,72.3561 149.686,72.6766 149.084,73.3176 C148.483,73.9585 148.164,74.7731 148.128,75.7614 L154.52,75.7614 M158.88,70.9274 L160.792,70.9274 L160.792,72.5602 C161.251,71.9945 161.666,71.5827 162.039,71.3249 C162.676,70.888 163.399,70.6696 164.208,70.6696 C165.125,70.6696 165.863,70.8952 166.421,71.3464 C166.736,71.6042 167.023,71.9837 167.281,72.485 C167.71,71.8691 168.215,71.4126 168.795,71.1154 C169.375,70.8182 170.027,70.6696 170.75,70.6696 C172.297,70.6696 173.35,71.2282 173.909,72.3454 C174.209,72.9469 174.36,73.7562 174.36,74.7731 L174.36,82.4323 L172.351,82.4323 L172.351,74.4401 C172.351,73.6738 172.159,73.1475 171.776,72.861 C171.393,72.5745 170.926,72.4313 170.374,72.4313 C169.615,72.4313 168.962,72.6856 168.414,73.194 C167.866,73.7025 167.592,74.5511 167.592,75.7399 L167.592,82.4323 L165.626,82.4323 L165.626,74.9235 C165.626,74.1429 165.533,73.5736 165.347,73.2155 C165.054,72.6784 164.506,72.4098 163.704,72.4098 C162.973,72.4098 162.309,72.6927 161.711,73.2585 C161.113,73.8242 160.814,74.8483 160.814,76.3307 L160.814,82.4323 L158.88,82.4323 L158.88,70.9274 Z" style="stroke:none;fill-rule:nonzero;fill:#2eadfe;fill-opacity:1;"/>
        </g>
    </g>
</svg>
